<?xml version="1.0" encoding="UTF-8" standalone="no"?>
<!DOCTYPE svg PUBLIC "-//W3C//DTD SVG 1.1//EN" "http://www.w3.org/Graphics/SVG/1.1/DTD/svg11.dtd">
<svg width="100%" height="100%" viewBox="0 0 367 170" version="1.1" xmlns="http://www.w3.org/2000/svg" xmlns:xlink="http://www.w3.org/1999/xlink" xml:space="preserve" xmlns:serif="http://www.serif.com/" style="fill-rule:evenodd;clip-rule:evenodd;stroke-linejoin:round;stroke-miterlimit:2;">
    <g id="Mesa-de-trabajo1" serif:id="Mesa de trabajo1" transform="matrix(1,0,0,1,-84,-134)">
        <rect x="84" y="134" width="367" height="170" style="fill:none;"/>
        <g transform="matrix(1.01667,0,0,0.511905,-20.7667,93)">
            <rect x="106" y="84" width="60" height="252" style="fill:rgb(118,1,1);"/>
        </g>
        <g transform="matrix(0.81922,-0.224912,0.233469,0.850386,-18.9001,139.815)">
            <g transform="matrix(1.13512,0.300218,-0.311639,1.09351,118.616,24.5337)">
                <path d="M296.901,110.274L286.397,119.492L300.074,122.365C296.258,120.135 294.672,114.09 296.901,110.274Z" style="fill:rgb(209,209,209);"/>
                <path d="M296.574,118.975C315.685,114.064 332.435,111.248 344.316,111.283C349.178,111.297 353.196,111.778 356.178,112.83C358.826,113.764 360.613,115.094 361.174,117.086C361.813,119.352 360.674,121.902 358.361,124.696C354.823,128.969 348.548,133.598 340.277,138.187C328.368,144.795 312.373,151.28 294.35,156.388L274.114,161.273C260.033,164.043 247.293,165.302 237.287,164.937C225.31,164.5 217.294,161.948 215.937,156.96C215.41,154.966 216.194,152.866 217.985,150.679C220.645,147.431 225.488,144.056 231.943,140.684C237.877,137.585 245.162,134.502 253.383,131.551C263.437,127.94 274.884,124.551 286.948,121.501C288.057,121.197 288.71,120.049 288.406,118.941C288.101,117.832 286.954,117.179 285.845,117.483C273.805,121.053 262.418,124.982 252.412,128.995C244.199,132.288 236.924,135.641 231.006,138.953C224.405,142.647 219.481,146.29 216.793,149.724C214.707,152.389 213.927,154.951 214.603,157.327C215.829,161.732 221.746,164.609 231.001,165.724C241.751,167.019 257.066,166.113 274.418,162.857L294.857,158.234C317.103,152.32 336.356,144.289 348.848,136.37C355.23,132.324 359.869,128.272 362.344,124.557C364.325,121.582 364.959,118.751 364.285,116.232C363.66,113.892 362.027,112.013 359.436,110.63C356.065,108.832 350.917,107.882 344.35,107.775C332.237,107.576 315.116,110.188 295.564,114.933C294.449,115.211 293.769,116.343 294.048,117.459C294.327,118.574 295.459,119.254 296.574,118.975Z" style="fill:rgb(209,209,209);"/>
            </g>
        </g>
        <g transform="matrix(0.753554,-0.058853,0,0.753554,207.637,139.052)">
            <path d="M173.169,182.679C173.169,182.679 205.855,159.417 181.999,149.739C166.293,143.317 140.092,163.244 141.843,173.953C141.973,174.748 151.253,170.633 158.254,163.785C163.506,158.646 170.809,155.819 174.358,154.578C191.581,148.553 172.321,180.557 161.623,179.877C161.623,179.877 158.058,183.698 159.161,185.056C160.35,186.499 175.037,185.311 168.076,197.536C158.143,214.94 137.428,210.78 144.304,200.677C144.304,200.677 133.947,214.94 155.086,217.232C170.877,219.015 192.951,188.792 173.169,182.679Z" style="fill:white;fill-rule:nonzero;"/>
            <path d="M210.609,174.529L210.864,173.934C222.92,153.559 229.287,155.766 229.287,155.766C229.287,155.766 224.787,143.456 216.128,148.805C204.497,156.021 189.555,188.622 189.47,198.3C189.385,207.469 193.885,212.563 199.743,214.431C202.459,215.619 206.195,215.704 210.1,214.77C211.034,214.601 211.883,214.346 212.817,214.091L212.732,214.006C221.731,210.95 231.324,203.224 233.532,192.612C237.692,166.463 210.609,174.529 210.609,174.529ZM207.978,205.177C199.827,206.62 200.252,200.168 200.676,197.621C201.44,194.055 202.714,190.405 204.242,186.754C204.327,186.499 204.412,186.245 204.582,185.99L205.685,183.698C229.287,171.218 222.665,202.715 207.978,205.177Z" style="fill:white;fill-rule:nonzero;"/>
            <path d="M272.924,147.956C272.924,147.956 251.191,144.73 239.644,178.943C229.711,208.488 245.333,214.94 250.427,215.365C255.435,215.874 279.631,215.704 285.829,174.529C289.479,156.361 278.782,147.701 272.924,147.956ZM272.585,185.141C265.623,204.158 259.171,205.347 255.181,205.347C250.936,205.347 245.842,198.215 252.889,180.557C260.36,161.964 265.284,151.691 273.009,154.323C278.358,156.191 279.462,166.124 272.585,185.141Z" style="fill:white;fill-rule:nonzero;"/>
        </g>
        <g transform="matrix(1.76683,0,0,1.76683,-172.29,-151.853)">
            <path d="M176.622,169.605C177.414,169.605 177.811,169.973 177.811,170.708C177.811,171.048 177.697,171.345 177.471,171.6C177.245,171.854 176.962,171.982 176.622,171.982L165.076,171.982L165.076,229.118C165.076,229.458 164.949,229.741 164.694,229.967C164.439,230.193 164.142,230.307 163.802,230.307C163.067,230.307 162.699,229.91 162.699,229.118L162.699,171.982L151.662,171.982C151.322,171.982 151.039,171.854 150.813,171.6C150.587,171.345 150.473,171.048 150.473,170.708C150.473,169.973 150.87,169.605 151.662,169.605L176.622,169.605Z" style="fill:white;fill-rule:nonzero;stroke:white;stroke-width:1.18px;"/>
        </g>
        <g transform="matrix(1.76683,0,0,1.76683,-153.29,-130.853)">
            <path d="M187.731,217.458C184.898,217.458 182.339,216.658 180.056,215.058C177.773,213.458 175.981,211.3 174.681,208.583C173.381,205.866 172.731,202.925 172.731,199.758C172.731,196.591 173.381,193.558 174.681,190.658C175.981,187.758 177.773,185.416 180.056,183.633C182.339,181.85 184.898,180.958 187.731,180.958C190.498,180.958 193.039,181.85 195.356,183.633C197.673,185.416 199.506,187.758 200.856,190.658C202.206,193.558 202.881,196.591 202.881,199.758C202.881,202.925 202.223,205.858 200.906,208.558C199.589,211.258 197.773,213.416 195.456,215.033C193.139,216.65 190.564,217.458 187.731,217.458ZM187.731,215.908C190.264,215.908 192.573,215.2 194.656,213.783C196.739,212.366 198.381,210.425 199.581,207.958C200.781,205.491 201.381,202.758 201.381,199.758C201.381,196.825 200.789,194.025 199.606,191.358C198.423,188.691 196.789,186.541 194.706,184.908C192.623,183.275 190.298,182.458 187.731,182.458C185.198,182.458 182.889,183.275 180.806,184.908C178.723,186.541 177.098,188.691 175.931,191.358C174.764,194.025 174.181,196.825 174.181,199.758C174.181,202.758 174.781,205.491 175.981,207.958C177.181,210.425 178.814,212.366 180.881,213.783C182.948,215.2 185.231,215.908 187.731,215.908Z" style="fill:white;fill-rule:nonzero;stroke:white;stroke-width:1.18px;"/>
        </g>
        <g transform="matrix(1.76683,0,0,1.76683,-153.29,-130.853)">
            <path d="M236.981,222.058C237.181,222.058 237.339,222.141 237.456,222.308C237.573,222.475 237.631,222.658 237.631,222.858C237.631,223.291 237.414,223.508 236.981,223.508C231.714,223.508 226.973,221.866 222.756,218.583C218.539,215.3 215.031,210.575 212.231,204.408C211.631,204.575 210.381,204.841 208.481,205.208L208.481,217.208C208.481,217.408 208.414,217.566 208.281,217.683C208.148,217.8 207.981,217.858 207.781,217.858C207.614,217.858 207.464,217.8 207.331,217.683C207.198,217.566 207.131,217.408 207.131,217.208L207.131,181.258C207.964,181.125 208.914,181.058 209.981,181.058C212.714,181.058 215.148,181.591 217.281,182.658C219.414,183.725 221.064,185.125 222.231,186.858C223.398,188.591 223.981,190.441 223.981,192.408C223.981,194.741 223.114,196.95 221.381,199.033C219.648,201.116 217.048,202.775 213.581,204.008C216.114,209.675 219.398,214.1 223.431,217.283C227.464,220.466 231.981,222.058 236.981,222.058ZM208.481,203.708C211.514,203.275 214.089,202.466 216.206,201.283C218.323,200.1 219.914,198.716 220.981,197.133C222.048,195.55 222.581,193.908 222.581,192.208C222.581,190.475 222.039,188.858 220.956,187.358C219.873,185.858 218.264,184.65 216.131,183.733C213.998,182.816 211.448,182.358 208.481,182.358L208.481,203.708Z" style="fill:white;fill-rule:nonzero;stroke:white;stroke-width:1.18px;"/>
        </g>
        <g transform="matrix(1.76683,0,0,1.76683,-153.29,-130.853)">
            <path d="M272.815,213.094C273.214,212.795 276.2,211.092 274.087,214.621C273.983,214.793 270.203,220.327 265.556,222.858C263.801,223.814 261.264,224.108 258.131,224.108C251.331,224.108 244.948,220.641 238.981,213.708C237.548,211.975 236.306,210.275 235.256,208.608C234.206,206.941 233.414,205.541 232.881,204.408C232.214,204.608 230.931,204.875 229.031,205.208L229.031,217.208C229.031,217.408 228.964,217.566 228.831,217.683C228.698,217.8 228.531,217.858 228.331,217.858C228.164,217.858 228.014,217.8 227.881,217.683C227.748,217.566 227.681,217.408 227.681,217.208L227.681,181.258C228.581,181.125 229.531,181.058 230.531,181.058C233.264,181.058 235.698,181.591 237.831,182.658C239.964,183.725 241.614,185.125 242.781,186.858C243.948,188.591 244.531,190.441 244.531,192.408C244.531,194.741 243.673,196.941 241.956,199.008C240.239,201.075 237.664,202.725 234.231,203.958C234.798,205.091 235.589,206.45 236.606,208.033C237.623,209.616 238.781,211.208 240.081,212.808C242.381,215.575 245.048,217.908 248.081,219.808C251.114,221.708 254.464,222.658 258.131,222.658C259.864,222.658 263.226,222.023 264.588,220.701C268.106,217.284 271.571,214.026 272.815,213.094ZM229.031,203.708C232.064,203.275 234.639,202.466 236.756,201.283C238.873,200.1 240.464,198.716 241.531,197.133C242.598,195.55 243.131,193.908 243.131,192.208C243.131,190.475 242.589,188.858 241.506,187.358C240.423,185.858 238.814,184.65 236.681,183.733C234.548,182.816 231.998,182.358 229.031,182.358L229.031,203.708Z" style="fill:white;fill-rule:nonzero;stroke:white;stroke-width:1.18px;"/>
        </g>
        <g transform="matrix(1.76683,0,0,1.76683,-153.29,-130.853)">
            <path d="M263.581,215.558C263.814,215.558 263.998,215.625 264.131,215.758C264.264,215.891 264.331,216.058 264.331,216.258C264.331,216.425 264.264,216.575 264.131,216.708C263.998,216.841 263.814,216.908 263.581,216.908L248.981,216.908C248.781,216.908 248.606,216.833 248.456,216.683C248.306,216.533 248.231,216.358 248.231,216.158L248.231,182.358C248.231,182.158 248.306,181.983 248.456,181.833C248.606,181.683 248.781,181.608 248.981,181.608L262.631,181.608C262.831,181.608 262.998,181.675 263.131,181.808C263.264,181.941 263.331,182.108 263.331,182.308C263.331,182.508 263.264,182.675 263.131,182.808C262.998,182.941 262.831,183.008 262.631,183.008L249.931,183.008C249.864,183.008 249.798,183.041 249.731,183.108C249.664,183.175 249.631,183.241 249.631,183.308L249.631,198.008L261.481,198.008C261.681,198.008 261.848,198.075 261.981,198.208C262.114,198.341 262.181,198.508 262.181,198.708C262.181,198.908 262.114,199.075 261.981,199.208C261.848,199.341 261.681,199.408 261.481,199.408L249.631,199.408L249.631,215.258C249.631,215.325 249.664,215.391 249.731,215.458C249.798,215.525 249.864,215.558 249.931,215.558L263.581,215.558Z" style="fill:white;fill-rule:nonzero;stroke:white;stroke-width:1.18px;"/>
        </g>
    </g>
</svg>
